<svg width="1600" height="1000" viewBox="0 0 1600 1000" fill="none" xmlns="http://www.w3.org/2000/svg">
  <rect width="1600" height="1000" fill="#050505"/>
  <circle cx="320" cy="220" r="170" fill="#1E3A8A" fill-opacity="0.2"/>
  <circle cx="1260" cy="760" r="210" fill="#7F1D1D" fill-opacity="0.18"/>
  <rect x="250" y="180" width="1100" height="620" rx="28" fill="#0C0C0C" stroke="#FFD700" stroke-opacity="0.45" stroke-width="4"/>
  <rect x="340" y="270" width="310" height="170" rx="18" fill="#111111" stroke="#3B82F6" stroke-opacity="0.65"/>
  <rect x="710" y="270" width="550" height="170" rx="18" fill="#111111" stroke="#FFD700" stroke-opacity="0.55"/>
  <rect x="340" y="500" width="920" height="200" rx="18" fill="#111111" stroke="#EF4444" stroke-opacity="0.45"/>
  <path d="M390 355H600" stroke="#FFD700" stroke-width="4" stroke-linecap="round"/>
  <path d="M760 335H1200" stroke="#3B82F6" stroke-width="4" stroke-linecap="round"/>
  <path d="M760 375H1120" stroke="#FFD700" stroke-width="4" stroke-linecap="round"/>
  <path d="M410 585H1180" stroke="#EF4444" stroke-width="4" stroke-linecap="round"/>
  <path d="M410 635H1080" stroke="#3B82F6" stroke-width="4" stroke-linecap="round"/>
  <g fill="#FFD700">
    <circle cx="390" cy="355" r="7"/>
    <circle cx="600" cy="355" r="7"/>
    <circle cx="760" cy="335" r="7"/>
    <circle cx="1200" cy="335" r="7"/>
    <circle cx="410" cy="585" r="7"/>
    <circle cx="1180" cy="585" r="7"/>
  </g>
</svg>
